# This file uses centimeters as units for non-parametric coordinates.

mtllib tanktop.mtl
g default
v -1.148637 0.186627 1.027201
v 1.148637 0.186627 1.027201
v -1.148637 0.363440 1.027201
v 1.148637 0.363440 1.027201
v -1.148637 0.363440 -1.027201
v 1.148637 0.363440 -1.027201
v -1.148637 0.186627 -1.027201
v 1.148637 0.186627 -1.027201
v 0.000000 0.363440 1.027201
v 1.148637 0.363440 0.000000
v 0.000000 0.363440 -1.027201
v -1.148637 0.363440 0.000000
v -0.574319 0.768138 0.513600
v -1.148637 0.363440 0.513600
v -0.574319 0.363440 1.027201
v 0.000000 0.768138 0.513600
v -0.574319 0.768138 0.000000
v 0.574319 0.768138 0.513600
v 0.574319 0.363440 1.027201
v 1.148637 0.363440 0.513600
v 0.831005 0.768138 0.000000
v 0.574319 0.768138 -0.513600
v 1.148637 0.363440 -0.513600
v 0.574319 0.363440 -1.027201
v 0.000000 0.768138 -0.513600
v -0.574319 0.768138 -0.513600
v -0.574319 0.363440 -1.027201
v -1.148637 0.363440 -0.513600
v 0.000000 1.254314 0.513600
v 0.000000 1.254314 0.000000
v -0.574319 1.195808 -0.000000
v -0.574319 1.254314 0.513600
v 0.831005 1.254314 0.000000
v 0.574319 1.254314 0.513600
v 0.000000 1.254314 -0.513600
v 0.574319 1.254314 -0.513600
v -0.574319 1.254314 -0.513600
v 0.831005 1.011226 0.256800
v 0.831005 0.768138 0.256800
v 0.831005 1.254314 0.256800
v 0.574319 1.011226 0.513600
v 0.831005 1.011226 -0.256800
v 0.831005 0.768138 -0.256800
v 0.574319 1.011226 -0.513600
v 0.831005 1.254314 -0.256800
v 1.260588 0.911800 0.000000
v 1.260588 0.911800 -0.105034
v 1.260588 1.011226 -0.105034
v 1.260588 0.911800 0.105034
v 1.260588 1.011226 0.105034
v 1.260588 1.110651 0.000000
v 1.260588 1.110651 0.105034
v 1.260588 1.110651 -0.105034
v 2.457803 0.965913 0.000000
v 2.457803 0.965913 -0.047869
v 2.457803 1.011226 -0.047869
v 2.457803 0.965913 0.047869
v 2.457803 1.011226 0.047869
v 2.457803 1.056539 0.000000
v 2.457803 1.056539 0.047869
v 2.457803 1.056539 -0.047869
v 2.689471 0.965913 0.000000
v 2.689471 1.011226 0.000000
v 2.689471 0.965913 -0.047869
v 2.689471 1.011226 -0.047869
v 2.689471 0.965913 0.047869
v 2.689471 1.011226 0.047869
v 2.689471 1.056539 0.000000
v 2.689471 1.056539 0.047869
v 2.689471 1.056539 -0.047869
v -0.287159 1.195808 0.256800
v 0.000000 1.254314 0.256800
v -0.287159 1.195808 -0.000000
v -0.574319 1.195808 0.256800
v -0.287159 1.254314 0.513600
v -0.287159 1.195808 -0.256800
v 0.000000 1.254314 -0.256800
v -0.287159 1.254314 -0.513600
v -0.574319 1.195808 -0.256800
v 2.689723 0.965913 -0.001249
v 2.689723 0.965913 0.046620
v 2.689723 1.011226 -0.001249
v 2.689723 1.011226 0.046620
v 2.689723 1.056539 -0.001249
v 2.689723 1.056539 0.046620
v 2.689723 1.056539 -0.049118
v 2.689723 1.011226 -0.049118
vt 0.375000 0.000000
vt 0.625000 0.000000
vt 0.375000 0.250000
vt 0.625000 0.250000
vt 0.375000 0.500000
vt 0.625000 0.500000
vt 0.375000 0.750000
vt 0.625000 0.750000
vt 0.375000 1.000000
vt 0.625000 1.000000
vt 0.875000 0.000000
vt 0.875000 0.250000
vt 0.125000 0.000000
vt 0.125000 0.250000
vt 0.500000 0.375000
vt 0.500000 0.250000
vt 0.625000 0.375000
vt 0.750000 0.250000
vt 0.500000 0.500000
vt 0.250000 0.250000
vt 0.375000 0.375000
vt 0.437500 0.312500
vt 0.312500 0.250000
vt 0.375000 0.312500
vt 0.437500 0.250000
vt 0.500000 0.312500
vt 0.437500 0.375000
vt 0.562500 0.312500
vt 0.562500 0.250000
vt 0.625000 0.312500
vt 0.687500 0.250000
vt 0.562500 0.375000
vt 0.562500 0.437500
vt 0.625000 0.437500
vt 0.812500 0.250000
vt 0.562500 0.500000
vt 0.500000 0.437500
vt 0.437500 0.437500
vt 0.437500 0.500000
vt 0.187500 0.250000
vt 0.375000 0.437500
vt 0.437500 0.375000
vt 0.437500 0.312500
vt 0.500000 0.312500
vt 0.562500 0.312500
vt 0.562500 0.375000
vt 0.562500 0.437500
vt 0.500000 0.437500
vt 0.437500 0.437500
vt 0.562500 0.343750
vt 0.562500 0.343750
vt 0.562500 0.375000
vt 0.562500 0.343750
vt 0.562500 0.312500
vt 0.562500 0.406250
vt 0.562500 0.406250
vt 0.562500 0.437500
vt 0.562500 0.406250
vt 0.562500 0.375000
vt 0.562500 0.406250
vt 0.562500 0.406250
vt 0.562500 0.343750
vt 0.562500 0.343750
vt 0.562500 0.375000
vt 0.562500 0.343750
vt 0.562500 0.406250
vt 0.562500 0.375000
vt 0.562500 0.406250
vt 0.562500 0.406250
vt 0.562500 0.343750
vt 0.562500 0.343750
vt 0.562500 0.375000
vt 0.562500 0.343750
vt 0.562500 0.406250
vt 0.562500 0.375000
vt 0.562500 0.406250
vt 0.562500 0.406250
vt 0.562500 0.343750
vt 0.562500 0.343750
vt 0.562500 0.375000
vt 0.562500 0.343750
vt 0.562500 0.406250
vt 0.468750 0.343750
vt 0.500000 0.343750
vt 0.468750 0.375000
vt 0.437500 0.343750
vt 0.468750 0.312500
vt 0.468750 0.406250
vt 0.500000 0.406250
vt 0.468750 0.437500
vt 0.437500 0.406250
vt 0.562500 0.343750
vt 0.562500 0.375000
vt 0.562500 0.375000
vt 0.562500 0.343750
vt 0.562500 0.375000
vt 0.562500 0.343750
vt 0.562500 0.406250
vt 0.562500 0.406250
vn 0.000000 0.000000 1.000000
vn 0.000000 0.000000 1.000000
vn 0.000000 0.000000 1.000000
vn 0.000000 0.000000 1.000000
vn 0.000000 0.000000 1.000000
vn 0.000000 0.000000 1.000000
vn 0.000000 0.000000 1.000000
vn -0.576015 0.817439 0.000000
vn -0.576015 0.817439 0.000000
vn -0.576015 0.817439 0.000000
vn -0.576015 0.817439 0.000000
vn 0.000000 0.000000 -1.000000
vn 0.000000 0.000000 -1.000000
vn 0.000000 0.000000 -1.000000
vn 0.000000 0.000000 -1.000000
vn 0.000000 0.000000 -1.000000
vn 0.000000 0.000000 -1.000000
vn 0.000000 0.000000 -1.000000
vn 0.000000 -1.000000 0.000000
vn 0.000000 -1.000000 0.000000
vn 0.000000 -1.000000 0.000000
vn 0.000000 -1.000000 0.000000
vn 1.000000 -0.000000 0.000000
vn 1.000000 -0.000000 0.000000
vn 1.000000 -0.000000 0.000000
vn 1.000000 -0.000000 0.000000
vn 1.000000 -0.000000 0.000000
vn 1.000000 -0.000000 0.000000
vn 1.000000 -0.000000 0.000000
vn -1.000000 -0.000000 0.000000
vn -1.000000 -0.000000 0.000000
vn -1.000000 -0.000000 0.000000
vn -1.000000 -0.000000 0.000000
vn -1.000000 -0.000000 0.000000
vn -1.000000 -0.000000 0.000000
vn -1.000000 -0.000000 0.000000
vn 0.000000 0.785459 0.618913
vn 0.000000 0.785459 0.618913
vn 0.000000 0.785459 0.618913
vn 0.000000 0.785459 0.618913
vn 0.715656 0.675171 -0.178834
vn 0.715656 0.675171 -0.178834
vn 0.715656 0.675171 -0.178834
vn 0.715656 0.675171 -0.178834
vn 0.715656 0.675171 -0.178834
vn 0.000000 0.785459 -0.618913
vn 0.000000 0.785459 -0.618913
vn 0.000000 0.785459 -0.618913
vn 0.000000 0.785459 -0.618913
vn -0.311496 0.884106 0.348321
vn -0.311496 0.884106 0.348321
vn -0.311496 0.884106 0.348321
vn -0.311496 0.884106 0.348321
vn 0.000000 0.785459 0.618913
vn 0.000000 0.785459 0.618913
vn 0.000000 0.785459 0.618913
vn 0.000000 0.785459 0.618913
vn -0.100701 0.988524 -0.112606
vn -0.100701 0.988524 -0.112606
vn -0.100701 0.988524 -0.112606
vn -0.100701 0.988524 -0.112606
vn 0.311496 0.884106 0.348321
vn 0.311496 0.884106 0.348321
vn 0.311496 0.884106 0.348321
vn 0.311496 0.884106 0.348321
vn 0.715656 0.675171 0.178834
vn 0.715656 0.675171 0.178834
vn 0.715656 0.675171 0.178834
vn 0.715656 0.675171 0.178834
vn 0.715656 0.675171 0.178834
vn 0.000000 1.000000 0.000000
vn 0.000000 1.000000 0.000000
vn 0.000000 1.000000 0.000000
vn 0.000000 1.000000 0.000000
vn 0.000000 1.000000 0.000000
vn 0.000000 1.000000 0.000000
vn 0.311496 0.884106 -0.348321
vn 0.311496 0.884106 -0.348321
vn 0.311496 0.884106 -0.348321
vn 0.311496 0.884106 -0.348321
vn 0.000000 0.785459 -0.618913
vn 0.000000 0.785459 -0.618913
vn 0.000000 0.785459 -0.618913
vn 0.000000 0.785459 -0.618913
vn 0.000000 1.000000 -0.000000
vn 0.000000 1.000000 -0.000000
vn 0.000000 1.000000 -0.000000
vn 0.000000 1.000000 -0.000000
vn 0.000000 1.000000 -0.000000
vn 0.000000 1.000000 -0.000000
vn -0.311496 0.884106 -0.348321
vn -0.311496 0.884106 -0.348321
vn -0.311496 0.884106 -0.348321
vn -0.311496 0.884106 -0.348321
vn -0.576015 0.817439 0.000000
vn -0.576015 0.817439 0.000000
vn -0.576015 0.817439 0.000000
vn -0.576015 0.817439 0.000000
vn 0.000000 1.000000 0.000000
vn 0.000000 1.000000 0.000000
vn 0.000000 1.000000 0.000000
vn 0.000000 1.000000 0.000000
vn -1.000000 -0.000000 0.000000
vn -1.000000 -0.000000 0.000000
vn -1.000000 -0.000000 0.000000
vn -1.000000 -0.000000 0.000000
vn -1.000000 -0.000000 0.000000
vn 0.000000 0.000000 1.000000
vn 0.000000 0.000000 1.000000
vn 0.000000 0.000000 1.000000
vn 0.000000 0.000000 1.000000
vn 0.000000 0.000000 1.000000
vn 0.000000 0.000000 1.000000
vn 0.000000 0.000000 1.000000
vn 0.000000 0.000000 1.000000
vn 0.000000 0.000000 1.000000
vn 0.000000 0.000000 1.000000
vn 0.707264 0.000000 0.706949
vn 0.707264 0.000000 0.706949
vn 0.707264 0.000000 0.706949
vn 0.707264 0.000000 0.706949
vn 1.000000 0.000000 0.000000
vn 1.000000 0.000000 0.000000
vn 1.000000 0.000000 0.000000
vn 1.000000 0.000000 0.000000
vn 0.000000 0.000000 -1.000000
vn 0.000000 0.000000 -1.000000
vn 0.000000 0.000000 -1.000000
vn 0.000000 0.000000 -1.000000
vn 0.000000 0.000000 -1.000000
vn 0.000000 0.000000 -1.000000
vn 0.000000 0.000000 -1.000000
vn 0.000000 0.000000 -1.000000
vn 0.000000 0.000000 -1.000000
vn 0.000000 0.000000 -1.000000
vn -1.000000 0.000000 0.000000
vn -1.000000 0.000000 0.000000
vn -1.000000 0.000000 0.000000
vn -1.000000 0.000000 0.000000
vn -1.000000 0.000000 0.000000
vn 1.000000 0.000000 0.000000
vn 1.000000 0.000000 0.000000
vn 1.000000 0.000000 0.000000
vn 1.000000 0.000000 0.000000
vn 1.000000 0.000000 0.000000
vn 1.000000 0.000000 0.000000
vn 1.000000 0.000000 0.000000
vn 1.000000 0.000000 0.000000
vn 0.707264 0.000000 0.706949
vn 0.707264 0.000000 0.706949
vn 0.707264 0.000000 0.706949
vn 0.707264 0.000000 0.706949
vn 0.707264 0.000000 -0.706949
vn 0.707264 0.000000 -0.706949
vn 0.707264 0.000000 -0.706949
vn 0.707264 0.000000 -0.706949
vn 0.707264 0.000000 -0.706949
vn 0.707264 0.000000 -0.706949
vn 0.707264 0.000000 -0.706949
vn 0.707264 0.000000 -0.706949
vn 1.000000 0.000000 0.000000
vn 1.000000 0.000000 0.000000
vn 1.000000 0.000000 0.000000
vn 1.000000 0.000000 0.000000
vn 0.317157 -0.948373 0.000000
vn 0.317157 -0.948373 0.000000
vn 0.317157 -0.948373 0.000000
vn 0.317157 -0.948373 0.000000
vn 0.333110 0.000000 -0.942888
vn 0.333110 0.000000 -0.942888
vn 0.333110 0.000000 -0.942888
vn 0.333110 0.000000 -0.942888
vn 0.317157 -0.948373 0.000000
vn 0.317157 -0.948373 0.000000
vn 0.317157 -0.948373 0.000000
vn 0.317157 -0.948373 0.000000
vn 0.333110 0.000000 0.942888
vn 0.333110 0.000000 0.942888
vn 0.333110 0.000000 0.942888
vn 0.333110 0.000000 0.942888
vn 0.317157 0.948373 0.000000
vn 0.317157 0.948373 0.000000
vn 0.317157 0.948373 0.000000
vn 0.317157 0.948373 0.000000
vn 0.333110 0.000000 0.942888
vn 0.333110 0.000000 0.942888
vn 0.333110 0.000000 0.942888
vn 0.333110 0.000000 0.942888
vn 0.317157 0.948373 0.000000
vn 0.317157 0.948373 0.000000
vn 0.317157 0.948373 0.000000
vn 0.317157 0.948373 0.000000
vn 0.333110 0.000000 -0.942888
vn 0.333110 0.000000 -0.942888
vn 0.333110 0.000000 -0.942888
vn 0.333110 0.000000 -0.942888
vn 0.045152 -0.998980 0.000000
vn 0.045152 -0.998980 0.000000
vn 0.045152 -0.998980 0.000000
vn 0.045152 -0.998980 0.000000
vn 0.047694 0.000000 -0.998862
vn 0.047694 0.000000 -0.998862
vn 0.047694 0.000000 -0.998862
vn 0.047694 0.000000 -0.998862
vn 0.045152 -0.998980 0.000000
vn 0.045152 -0.998980 0.000000
vn 0.045152 -0.998980 0.000000
vn 0.045152 -0.998980 0.000000
vn 0.047694 0.000000 0.998862
vn 0.047694 0.000000 0.998862
vn 0.047694 0.000000 0.998862
vn 0.047694 0.000000 0.998862
vn 0.045152 0.998980 0.000000
vn 0.045152 0.998980 0.000000
vn 0.045152 0.998980 0.000000
vn 0.045152 0.998980 0.000000
vn 0.047694 0.000000 0.998862
vn 0.047694 0.000000 0.998862
vn 0.047694 0.000000 0.998862
vn 0.047694 0.000000 0.998862
vn 0.045152 0.998980 0.000000
vn 0.045152 0.998980 0.000000
vn 0.045152 0.998980 0.000000
vn 0.045152 0.998980 0.000000
vn 0.047694 0.000000 -0.998862
vn 0.047694 0.000000 -0.998862
vn 0.047694 0.000000 -0.998862
vn 0.047694 0.000000 -0.998862
vn 0.000000 -1.000000 0.000000
vn 0.000000 -1.000000 0.000000
vn 0.000000 -1.000000 0.000000
vn 0.000000 -1.000000 0.000000
vn 0.000000 0.000000 -1.000000
vn 0.000000 0.000000 -1.000000
vn 0.000000 0.000000 -1.000000
vn 0.000000 0.000000 -1.000000
vn 0.000000 -1.000000 0.000000
vn 0.000000 -1.000000 0.000000
vn 0.000000 -1.000000 0.000000
vn 0.000000 -1.000000 0.000000
vn 0.000000 0.000000 1.000000
vn 0.000000 0.000000 1.000000
vn 0.000000 0.000000 1.000000
vn 0.000000 0.000000 1.000000
vn 0.000000 1.000000 0.000000
vn 0.000000 1.000000 0.000000
vn 0.000000 1.000000 0.000000
vn 0.000000 1.000000 0.000000
vn 0.000000 0.000000 1.000000
vn 0.000000 0.000000 1.000000
vn 0.000000 0.000000 1.000000
vn 0.000000 0.000000 1.000000
vn 0.000000 1.000000 0.000000
vn 0.000000 1.000000 0.000000
vn 0.000000 1.000000 0.000000
vn 0.000000 1.000000 0.000000
vn -0.000000 0.000000 -1.000000
vn -0.000000 0.000000 -1.000000
vn -0.000000 0.000000 -1.000000
vn -0.000000 0.000000 -1.000000
vn -0.199638 0.979870 0.000000
vn -0.199638 0.979870 0.000000
vn -0.199638 0.979870 0.000000
vn -0.199638 0.979870 0.000000
vn 0.000000 1.000000 0.000000
vn 0.000000 1.000000 0.000000
vn 0.000000 1.000000 0.000000
vn 0.000000 1.000000 0.000000
vn 0.000000 0.975016 -0.222134
vn 0.000000 0.975016 -0.222134
vn 0.000000 0.975016 -0.222134
vn 0.000000 0.975016 -0.222134
vn -0.199638 0.979870 0.000000
vn -0.199638 0.979870 0.000000
vn -0.199638 0.979870 0.000000
vn -0.199638 0.979870 0.000000
vn -0.100701 0.988524 0.112605
vn -0.100701 0.988524 0.112605
vn -0.100701 0.988524 0.112605
vn -0.100701 0.988524 0.112605
vn 0.000000 0.975016 0.222133
vn 0.000000 0.975016 0.222133
vn 0.000000 0.975016 0.222133
vn 0.000000 0.975016 0.222133
vn 0.000000 -1.000000 0.000000
vn 0.000000 -1.000000 0.000000
vn 0.000000 -1.000000 0.000000
vn 0.000000 -1.000000 0.000000
vn -0.980255 0.000000 -0.197739
vn -0.980255 0.000000 -0.197739
vn -0.980255 0.000000 -0.197739
vn -0.980255 0.000000 -0.197739
vn 0.980255 0.000000 0.197739
vn 0.980255 0.000000 0.197739
vn 0.980255 0.000000 0.197739
vn 0.980255 0.000000 0.197739
vn 0.000000 1.000000 0.000000
vn 0.000000 1.000000 0.000000
vn 0.000000 1.000000 0.000000
vn 0.000000 1.000000 0.000000
vn 0.980255 0.000000 0.197740
vn 0.980255 0.000000 0.197740
vn 0.980255 0.000000 0.197740
vn 0.980255 0.000000 0.197740
vn 0.000000 1.000000 0.000000
vn 0.000000 1.000000 0.000000
vn 0.000000 1.000000 0.000000
vn 0.000000 1.000000 0.000000
vn 0.000000 -1.000000 0.000000
vn 0.000000 -1.000000 0.000000
vn 0.000000 -1.000000 0.000000
vn 0.000000 -1.000000 0.000000
vn -0.980255 0.000005 -0.197739
vn -0.980255 0.000005 -0.197739
vn -0.980255 0.000005 -0.197739
vn -0.980255 0.000005 -0.197739
s off
g pCube1
usemtl initialShadingGroup
f 1/1/1 2/2/2 4/4/3 19/29/4 9/16/5 15/25/6 3/3/7
f 17/27/8 12/21/9 14/24/10 13/22/11
f 5/5/12 27/39/13 11/19/14 24/36/15 6/6/16 8/8/17 7/7/18
f 7/7/19 8/8/20 2/10/21 1/9/22
f 2/2/23 8/11/24 6/12/25 23/35/26 10/18/27 20/31/28 4/4/29
f 7/13/30 1/1/31 3/3/32 14/23/33 12/20/34 28/40/35 5/14/36
f 16/26/37 9/16/38 19/29/39 18/28/40
f 21/32/41 10/17/42 23/34/43 22/33/44 43/56/45
f 25/37/46 11/19/47 27/39/48 26/38/49
f 14/24/50 3/3/51 15/25/52 13/22/53
f 15/25/54 9/16/55 16/26/56 13/22/57
f 75/87/58 29/44/59 72/84/60 71/83/61
f 19/29/62 4/4/63 20/30/64 18/28/65
f 20/30/66 10/17/67 21/32/68 39/51/69 18/28/70
f 33/46/71 30/15/72 72/84/73 29/44/74 34/45/75 40/53/76
f 23/34/77 6/6/78 24/36/79 22/33/80
f 24/36/81 11/19/82 25/37/83 22/33/84
f 35/48/85 77/89/86 30/15/87 33/46/88 45/58/89 36/47/90
f 27/39/91 5/5/92 28/41/93 26/38/94
f 28/41/95 12/21/96 17/27/97 26/38/98
f 79/91/99 31/42/100 73/85/101 76/88/102
f 17/27/103 13/22/104 32/43/105 74/86/106 31/42/107
f 13/22/108 16/26/109 29/44/110 75/87/111 32/43/112
f 16/26/113 18/28/114 41/54/115 34/45/116 29/44/117
f 41/54/118 18/28/119 39/51/120 38/50/121
f 63/52/122 62/75/123 64/76/124 65/77/125
f 22/33/126 25/37/127 35/48/128 36/47/129 44/57/130
f 25/37/131 26/38/132 37/49/133 78/90/134 35/48/135
f 26/38/136 17/27/137 31/42/138 79/91/139 37/49/140
f 81/92/141 80/93/142 82/94/143 83/95/144
f 82/94/145 84/96/146 85/97/147 83/95/148
f 40/53/149 34/45/150 41/54/151 38/50/152
f 43/56/153 22/33/154 44/57/155 42/55/156
f 44/57/157 36/47/158 45/58/159 42/55/160
f 86/98/161 84/96/162 82/94/163 87/99/164
f 21/32/165 43/56/166 47/60/167 46/59/168
f 43/56/169 42/55/170 48/61/171 47/60/172
f 39/51/173 21/32/174 46/59/175 49/62/176
f 38/50/177 39/51/178 49/62/179 50/63/180
f 33/46/181 40/53/182 52/65/183 51/64/184
f 40/53/185 38/50/186 50/63/187 52/65/188
f 45/58/189 33/46/190 51/64/191 53/66/192
f 42/55/193 45/58/194 53/66/195 48/61/196
f 46/59/197 47/60/198 55/68/199 54/67/200
f 47/60/201 48/61/202 56/69/203 55/68/204
f 49/62/205 46/59/206 54/67/207 57/70/208
f 50/63/209 49/62/210 57/70/211 58/71/212
f 51/64/213 52/65/214 60/73/215 59/72/216
f 52/65/217 50/63/218 58/71/219 60/73/220
f 53/66/221 51/64/222 59/72/223 61/74/224
f 48/61/225 53/66/226 61/74/227 56/69/228
f 54/67/229 55/68/230 64/76/231 62/75/232
f 55/68/233 56/69/234 65/77/235 64/76/236
f 57/70/237 54/67/238 62/75/239 66/78/240
f 58/71/241 57/70/242 66/78/243 67/79/244
f 59/72/245 60/73/246 69/81/247 68/80/248
f 60/73/249 58/71/250 67/79/251 69/81/252
f 61/74/253 59/72/254 68/80/255 70/82/256
f 56/69/257 61/74/258 70/82/259 65/77/260
f 72/84/261 30/15/262 73/85/263 71/83/264
f 73/85/265 31/42/266 74/86/267 71/83/268
f 74/86/269 32/43/270 75/87/271 71/83/272
f 73/85/273 30/15/274 77/89/275 76/88/276
f 77/89/277 35/48/278 78/90/279 76/88/280
f 78/90/281 37/49/282 79/91/283 76/88/284
f 66/78/285 62/75/286 80/93/287 81/92/288
f 62/75/289 63/52/290 82/94/291 80/93/292
f 67/79/293 66/78/294 81/92/295 83/95/296
f 68/80/297 69/81/298 85/97/299 84/96/300
f 69/81/301 67/79/302 83/95/303 85/97/304
f 70/82/305 68/80/306 84/96/307 86/98/308
f 63/52/309 65/77/310 87/99/311 82/94/312
f 65/77/313 70/82/314 86/98/315 87/99/316
